<svg width="650" height="650" viewBox="0 0 650 650" fill="none" xmlns="http://www.w3.org/2000/svg">
<path fill-rule="evenodd" clip-rule="evenodd" d="M592.674 349C593.374 341.093 593.731 333.088 593.731 325C593.731 320.979 593.643 316.978 593.468 313H522.485C519.03 322.341 510.042 329 499.5 329C485.969 329 475 318.031 475 304.5C475 290.969 485.969 280 499.5 280C510.415 280 519.663 287.138 522.831 297H592.29C591.759 291.871 591.084 286.785 590.269 281.746H558.614L558.551 281.644L548.588 267.24C538.939 269.712 528.35 266.108 522.353 257.438C514.655 246.31 517.436 231.049 528.565 223.351C539.693 215.654 554.954 218.435 562.651 229.563C568.861 238.54 568.252 250.206 561.943 258.422L567.009 265.746H587.177C563.942 162.496 481.277 81.7406 377 61.2958V113.68L384.325 118.747C392.54 112.438 404.207 111.829 413.183 118.038C424.311 125.736 427.092 140.997 419.395 152.125C411.697 163.253 396.436 166.034 385.308 158.337C376.638 152.339 373.034 141.75 375.507 132.102L361.102 122.138L361 122.075V58.6591C354.08 57.7327 347.076 57.0695 340 56.6802V168.169C349.862 171.337 357 180.585 357 191.5C357 205.031 346.031 216 332.5 216C318.969 216 308 205.031 308 191.5C308 180.958 314.659 171.97 324 168.515V56.2705C316.252 56.2987 308.581 56.6548 301 57.3257V146C301 147.657 299.657 149 298 149H288C286.343 149 285 147.657 285 146V59.2253C277.219 60.3864 269.548 61.881 262 63.6942V167.169C271.862 170.337 279 179.585 279 190.5C279 204.031 268.031 215 254.5 215C240.969 215 230 204.031 230 190.5C230 179.958 236.659 170.97 246 167.515V68.0681C237.478 70.6851 229.137 73.7144 221 77.1328V113.169C230.862 116.337 238 125.585 238 136.5C238 150.031 227.031 161 213.5 161C199.969 161 189 150.031 189 136.5C189 125.958 195.659 116.97 205 113.515V84.4831C173.997 99.9811 146.41 121.297 123.668 147H139.169C142.337 137.138 151.585 130 162.5 130C176.031 130 187 140.969 187 154.5C187 168.031 176.031 179 162.5 179C151.958 179 142.97 172.341 139.515 163H110.569C103.822 171.916 97.6192 181.266 92.0086 191H180.169C183.337 181.138 192.585 174 203.5 174C217.031 174 228 184.969 228 198.5C228 212.031 217.031 223 203.5 223C192.958 223 183.97 216.341 180.515 207H83.4937C78.7518 216.687 74.5755 226.701 71.0079 237H119.169C122.337 227.138 131.585 220 142.5 220C156.031 220 167 230.969 167 244.5C167 258.031 156.031 269 142.5 269C131.958 269 122.97 262.341 119.515 253H66.0227C62.6014 265.333 60.0374 278.022 58.399 291H75.1693C78.3372 281.138 87.585 274 98.5 274C112.031 274 123 284.969 123 298.5C123 312.031 112.031 323 98.5 323C87.9575 323 78.9703 316.341 75.5147 307H56.8619C56.4685 312.949 56.2687 318.951 56.2687 325C56.2687 332.067 56.5414 339.07 57.0771 346H92.1693C95.3372 336.138 104.585 329 115.5 329C129.031 329 140 339.969 140 353.5C140 367.031 129.031 378 115.5 378C104.958 378 95.9703 371.341 92.5147 362H58.7949C60.3423 373.237 62.5843 384.251 65.4762 395H113.169C116.337 385.138 125.585 378 136.5 378C150.031 378 161 388.969 161 402.5C161 416.031 150.031 427 136.5 427C125.958 427 116.97 420.341 113.515 411H70.324C73.6792 420.94 77.6001 430.619 82.0482 440H145.169C148.337 430.138 157.585 423 168.5 423C182.031 423 193 433.969 193 447.5C193 461.031 182.031 472 168.5 472C157.958 472 148.97 465.341 145.515 456H90.3051C97.8109 469.418 106.434 482.127 116.049 494H141.169C144.337 484.138 153.585 477 164.5 477C178.031 477 189 487.969 189 501.5C189 515.031 178.031 526 164.5 526C153.958 526 144.97 519.341 141.515 510H130.084C162.671 544.322 204.229 570.046 251 583.414V528.485C241.659 525.03 235 516.042 235 505.5C235 491.969 245.969 481 259.5 481C273.031 481 284 491.969 284 505.5C284 516.415 276.862 525.663 267 528.831V538H305V592.998C307.656 593.194 310.323 593.351 313 593.468V506.485C303.659 503.03 297 494.042 297 483.5C297 469.969 307.969 459 321.5 459C335.031 459 346 469.969 346 483.5C346 494.415 338.862 503.663 329 506.831V593.702C340.869 593.529 352.551 592.586 364 590.922V463.485C354.659 460.03 348 451.042 348 440.5C348 426.969 358.969 416 372.5 416C386.031 416 397 426.969 397 440.5C397 451.415 389.862 460.663 380 463.831V588.098C386.763 586.692 393.434 585.031 400 583.126V535H432V402.485C422.659 399.03 416 390.042 416 379.5C416 365.969 426.969 355 440.5 355C454.031 355 465 365.969 465 379.5C465 390.415 457.862 399.663 448 402.831V563.994C460.614 557.489 472.647 550.014 484 541.669V441.485C474.659 438.03 468 429.042 468 418.5C468 404.969 478.969 394 492.5 394C506.031 394 517 404.969 517 418.5C517 429.415 509.862 438.663 500 441.831V528.947C547.822 487.874 581.034 430.272 590.775 365H520.485C517.03 374.341 508.042 381 497.5 381C483.969 381 473 370.031 473 356.5C473 342.969 483.969 332 497.5 332C508.415 332 517.663 339.138 520.831 349H592.674ZM482.771 147.67C477.306 142.201 468.44 142.198 462.972 147.662L276.833 333.649L211.398 268.161C205.933 262.692 197.068 262.689 191.599 268.153L151.421 308.298C145.953 313.762 145.948 322.628 151.413 328.097L266.36 443.138C267.651 444.43 269.136 445.418 270.717 446.1C275.96 448.723 282.506 447.851 286.88 443.48L522.907 207.646C528.375 202.182 528.38 193.317 522.915 187.847L482.771 147.67ZM403 407H419V511H403V407Z" fill="url(#paint0_linear_2900_15693)"/>
<path d="M289 591.341V554H267V587.456C274.229 589.047 281.566 590.346 289 591.341Z" fill="url(#paint1_linear_2900_15693)"/>
<path d="M432 571.585V551H416V577.933C421.416 575.984 426.752 573.866 432 571.585Z" fill="url(#paint2_linear_2900_15693)"/>
<path d="M343 191.5C343 197.299 338.299 202 332.5 202C326.701 202 322 197.299 322 191.5C322 185.701 326.701 181 332.5 181C338.299 181 343 185.701 343 191.5Z" fill="url(#paint3_linear_2900_15693)"/>
<path d="M254.5 201C260.299 201 265 196.299 265 190.5C265 184.701 260.299 180 254.5 180C248.701 180 244 184.701 244 190.5C244 196.299 248.701 201 254.5 201Z" fill="url(#paint4_linear_2900_15693)"/>
<path d="M213.5 147C219.299 147 224 142.299 224 136.5C224 130.701 219.299 126 213.5 126C207.701 126 203 130.701 203 136.5C203 142.299 207.701 147 213.5 147Z" fill="url(#paint5_linear_2900_15693)"/>
<path d="M162.5 144C168.299 144 173 148.701 173 154.5C173 160.299 168.299 165 162.5 165C156.701 165 152 160.299 152 154.5C152 148.701 156.701 144 162.5 144Z" fill="url(#paint6_linear_2900_15693)"/>
<path d="M164.5 491C170.299 491 175 495.701 175 501.5C175 507.299 170.299 512 164.5 512C158.701 512 154 507.299 154 501.5C154 495.701 158.701 491 164.5 491Z" fill="url(#paint7_linear_2900_15693)"/>
<path d="M179 447.5C179 441.701 174.299 437 168.5 437C162.701 437 158 441.701 158 447.5C158 453.299 162.701 458 168.5 458C174.299 458 179 453.299 179 447.5Z" fill="url(#paint8_linear_2900_15693)"/>
<path d="M147 402.5C147 396.701 142.299 392 136.5 392C130.701 392 126 396.701 126 402.5C126 408.299 130.701 413 136.5 413C142.299 413 147 408.299 147 402.5Z" fill="url(#paint9_linear_2900_15693)"/>
<path d="M115.5 343C121.299 343 126 347.701 126 353.5C126 359.299 121.299 364 115.5 364C109.701 364 105 359.299 105 353.5C105 347.701 109.701 343 115.5 343Z" fill="url(#paint10_linear_2900_15693)"/>
<path d="M98.5 288C104.299 288 109 292.701 109 298.5C109 304.299 104.299 309 98.5 309C92.701 309 88 304.299 88 298.5C88 292.701 92.701 288 98.5 288Z" fill="url(#paint11_linear_2900_15693)"/>
<path d="M153 244.5C153 238.701 148.299 234 142.5 234C136.701 234 132 238.701 132 244.5C132 250.299 136.701 255 142.5 255C148.299 255 153 250.299 153 244.5Z" fill="url(#paint12_linear_2900_15693)"/>
<path d="M214 198.5C214 192.701 209.299 188 203.5 188C197.701 188 193 192.701 193 198.5C193 204.299 197.701 209 203.5 209C209.299 209 214 204.299 214 198.5Z" fill="url(#paint13_linear_2900_15693)"/>
<path d="M551.138 237.527C547.839 232.758 541.298 231.566 536.529 234.865C531.76 238.164 530.568 244.705 533.867 249.474C537.166 254.243 543.706 255.435 548.475 252.136C553.245 248.837 554.437 242.296 551.138 237.527Z" fill="url(#paint14_linear_2900_15693)"/>
<path d="M499.5 294C493.701 294 489 298.701 489 304.5C489 310.299 493.701 315 499.5 315C505.299 315 510 310.299 510 304.5C510 298.701 505.299 294 499.5 294Z" fill="url(#paint15_linear_2900_15693)"/>
<path d="M497.5 346C491.701 346 487 350.701 487 356.5C487 362.299 491.701 367 497.5 367C503.299 367 508 362.299 508 356.5C508 350.701 503.299 346 497.5 346Z" fill="url(#paint16_linear_2900_15693)"/>
<path d="M405.219 129.552C409.988 132.851 411.18 139.391 407.881 144.161C404.582 148.93 398.042 150.122 393.272 146.823C388.503 143.524 387.311 136.983 390.61 132.214C393.909 127.445 400.45 126.253 405.219 129.552Z" fill="url(#paint17_linear_2900_15693)"/>
<path d="M492.5 408C498.299 408 503 412.701 503 418.5C503 424.299 498.299 429 492.5 429C486.701 429 482 424.299 482 418.5C482 412.701 486.701 408 492.5 408Z" fill="url(#paint18_linear_2900_15693)"/>
<path d="M440.5 369C446.299 369 451 373.701 451 379.5C451 385.299 446.299 390 440.5 390C434.701 390 430 385.299 430 379.5C430 373.701 434.701 369 440.5 369Z" fill="url(#paint19_linear_2900_15693)"/>
<path d="M383 440.5C383 434.701 378.299 430 372.5 430C366.701 430 362 434.701 362 440.5C362 446.299 366.701 451 372.5 451C378.299 451 383 446.299 383 440.5Z" fill="url(#paint20_linear_2900_15693)"/>
<path d="M321.5 473C327.299 473 332 477.701 332 483.5C332 489.299 327.299 494 321.5 494C315.701 494 311 489.299 311 483.5C311 477.701 315.701 473 321.5 473Z" fill="url(#paint21_linear_2900_15693)"/>
<path d="M270 505.5C270 499.701 265.299 495 259.5 495C253.701 495 249 499.701 249 505.5C249 511.299 253.701 516 259.5 516C265.299 516 270 511.299 270 505.5Z" fill="url(#paint22_linear_2900_15693)"/>
<path fill-rule="evenodd" clip-rule="evenodd" d="M650 325C650 504.493 504.493 650 325 650C145.507 650 0 504.493 0 325C0 145.507 145.507 0 325 0C504.493 0 650 145.507 650 325ZM325 612.164C483.596 612.164 612.164 483.597 612.164 325C612.164 166.403 483.596 37.8358 325 37.8358C166.404 37.8358 37.8358 166.403 37.8358 325C37.8358 483.597 166.404 612.164 325 612.164Z" fill="url(#paint23_linear_2900_15693)"/>
<defs>
<linearGradient id="paint0_linear_2900_15693" x1="-130" y1="499.5" x2="559.5" y2="209.5" gradientUnits="userSpaceOnUse">
<stop stop-color="#12503B"/>
<stop offset="1" stop-color="#1A6648"/>
</linearGradient>
<linearGradient id="paint1_linear_2900_15693" x1="-130" y1="499.5" x2="559.5" y2="209.5" gradientUnits="userSpaceOnUse">
<stop stop-color="#12503B"/>
<stop offset="1" stop-color="#1A6648"/>
</linearGradient>
<linearGradient id="paint2_linear_2900_15693" x1="-130" y1="499.5" x2="559.5" y2="209.5" gradientUnits="userSpaceOnUse">
<stop stop-color="#12503B"/>
<stop offset="1" stop-color="#1A6648"/>
</linearGradient>
<linearGradient id="paint3_linear_2900_15693" x1="-130" y1="499.5" x2="559.5" y2="209.5" gradientUnits="userSpaceOnUse">
<stop stop-color="#12503B"/>
<stop offset="1" stop-color="#1A6648"/>
</linearGradient>
<linearGradient id="paint4_linear_2900_15693" x1="-130" y1="499.5" x2="559.5" y2="209.5" gradientUnits="userSpaceOnUse">
<stop stop-color="#12503B"/>
<stop offset="1" stop-color="#1A6648"/>
</linearGradient>
<linearGradient id="paint5_linear_2900_15693" x1="-130" y1="499.5" x2="559.5" y2="209.5" gradientUnits="userSpaceOnUse">
<stop stop-color="#12503B"/>
<stop offset="1" stop-color="#1A6648"/>
</linearGradient>
<linearGradient id="paint6_linear_2900_15693" x1="-130" y1="499.5" x2="559.5" y2="209.5" gradientUnits="userSpaceOnUse">
<stop stop-color="#12503B"/>
<stop offset="1" stop-color="#1A6648"/>
</linearGradient>
<linearGradient id="paint7_linear_2900_15693" x1="-130" y1="499.5" x2="559.5" y2="209.5" gradientUnits="userSpaceOnUse">
<stop stop-color="#12503B"/>
<stop offset="1" stop-color="#1A6648"/>
</linearGradient>
<linearGradient id="paint8_linear_2900_15693" x1="-130" y1="499.5" x2="559.5" y2="209.5" gradientUnits="userSpaceOnUse">
<stop stop-color="#12503B"/>
<stop offset="1" stop-color="#1A6648"/>
</linearGradient>
<linearGradient id="paint9_linear_2900_15693" x1="-130" y1="499.5" x2="559.5" y2="209.5" gradientUnits="userSpaceOnUse">
<stop stop-color="#12503B"/>
<stop offset="1" stop-color="#1A6648"/>
</linearGradient>
<linearGradient id="paint10_linear_2900_15693" x1="-130" y1="499.5" x2="559.5" y2="209.5" gradientUnits="userSpaceOnUse">
<stop stop-color="#12503B"/>
<stop offset="1" stop-color="#1A6648"/>
</linearGradient>
<linearGradient id="paint11_linear_2900_15693" x1="-130" y1="499.5" x2="559.5" y2="209.5" gradientUnits="userSpaceOnUse">
<stop stop-color="#12503B"/>
<stop offset="1" stop-color="#1A6648"/>
</linearGradient>
<linearGradient id="paint12_linear_2900_15693" x1="-130" y1="499.5" x2="559.5" y2="209.5" gradientUnits="userSpaceOnUse">
<stop stop-color="#12503B"/>
<stop offset="1" stop-color="#1A6648"/>
</linearGradient>
<linearGradient id="paint13_linear_2900_15693" x1="-130" y1="499.5" x2="559.5" y2="209.5" gradientUnits="userSpaceOnUse">
<stop stop-color="#12503B"/>
<stop offset="1" stop-color="#1A6648"/>
</linearGradient>
<linearGradient id="paint14_linear_2900_15693" x1="-130" y1="499.5" x2="559.5" y2="209.5" gradientUnits="userSpaceOnUse">
<stop stop-color="#12503B"/>
<stop offset="1" stop-color="#1A6648"/>
</linearGradient>
<linearGradient id="paint15_linear_2900_15693" x1="-130" y1="499.5" x2="559.5" y2="209.5" gradientUnits="userSpaceOnUse">
<stop stop-color="#12503B"/>
<stop offset="1" stop-color="#1A6648"/>
</linearGradient>
<linearGradient id="paint16_linear_2900_15693" x1="-130" y1="499.5" x2="559.5" y2="209.5" gradientUnits="userSpaceOnUse">
<stop stop-color="#12503B"/>
<stop offset="1" stop-color="#1A6648"/>
</linearGradient>
<linearGradient id="paint17_linear_2900_15693" x1="-130" y1="499.5" x2="559.5" y2="209.5" gradientUnits="userSpaceOnUse">
<stop stop-color="#12503B"/>
<stop offset="1" stop-color="#1A6648"/>
</linearGradient>
<linearGradient id="paint18_linear_2900_15693" x1="-130" y1="499.5" x2="559.5" y2="209.5" gradientUnits="userSpaceOnUse">
<stop stop-color="#12503B"/>
<stop offset="1" stop-color="#1A6648"/>
</linearGradient>
<linearGradient id="paint19_linear_2900_15693" x1="-130" y1="499.5" x2="559.5" y2="209.5" gradientUnits="userSpaceOnUse">
<stop stop-color="#12503B"/>
<stop offset="1" stop-color="#1A6648"/>
</linearGradient>
<linearGradient id="paint20_linear_2900_15693" x1="-130" y1="499.5" x2="559.5" y2="209.5" gradientUnits="userSpaceOnUse">
<stop stop-color="#12503B"/>
<stop offset="1" stop-color="#1A6648"/>
</linearGradient>
<linearGradient id="paint21_linear_2900_15693" x1="-130" y1="499.5" x2="559.5" y2="209.5" gradientUnits="userSpaceOnUse">
<stop stop-color="#12503B"/>
<stop offset="1" stop-color="#1A6648"/>
</linearGradient>
<linearGradient id="paint22_linear_2900_15693" x1="-130" y1="499.5" x2="559.5" y2="209.5" gradientUnits="userSpaceOnUse">
<stop stop-color="#12503B"/>
<stop offset="1" stop-color="#1A6648"/>
</linearGradient>
<linearGradient id="paint23_linear_2900_15693" x1="-130" y1="499.5" x2="559.5" y2="209.5" gradientUnits="userSpaceOnUse">
<stop stop-color="#12503B"/>
<stop offset="1" stop-color="#1A6648"/>
</linearGradient>
</defs>
</svg>
